{"title":"Face.Off.S03E12.Live.Finale.XviD-OGC","uid":7779779,"size":366036626,"categoryP":"video","categoryS":"tv_shows","magnet":"?xt=urn:btih:cc52133f6599a8820b3f78971cbb0b5e0c399b48&amp;dn=Face.Off.S03E12.Live.Finale.XviD-OGC&amp;tr=udp%3A%2F%2Ftracker.openbittorrent.com%3A80&amp;tr=udp%3A%2F%2Fopen.demonii.com%3A1337&amp;tr=udp%3A%2F%2Ftracker.coppersurfer.tk%3A6969&amp;tr=udp%3A%2F%2Fexodus.desync.com%3A6969","seeders":1,"leechers":0,"uploader":"LegendET","files":3,"time":1351750773,"description":"McKenzie Westmore hosts a special live event in which the contestants are reunited in Los Angeles and the three anxious finalists finally learn which of them has earned enough votes from viewers to be crowned the champion.\n\n\nRelease Details:\n\nFormat : AVI\nFormat/Info : Audio Video Interleave\nFile size : 349 MiB\nDuration : 43mn 0s\nOverall bit rate mode : Variable\nOverall bit rate : 1 135 Kbps\n\nVideo\nID : 0\nFormat : MPEG-4 Visual\nFormat profile : Advanced Simple@L5\nFormat settings, BVOP : 2\nFormat settings, QPel : No\nFormat settings, GMC : No warppoints\nFormat settings, Matrix : Default (H.263)\nCodec ID : XVID\nCodec ID/Hint : XviD\nDuration : 43mn 0s\nBit rate : 997 Kbps\nWidth : 640 pixels\nHeight : 360 pixels\nDisplay aspect ratio : 16:9\nFrame rate : 29.970 fps\nColor space : YUV\nChroma subsampling : 4:2:0\nBit depth : 8 bits\nScan type : Progressive\nCompression mode : Lossy\nBits/(Pixel*Frame) : 0.144\nStream size : 307 MiB (88%)\nWriting library : XviD 1.2.1 (UTC 2008-12-04)\n\nAudio\nID : 1\nFormat : MPEG Audio\nFormat version : Version 1\nFormat profile : Layer 3\nMode : Joint stereo\nMode extension : MS Stereo\nCodec ID : 55\nCodec ID/Hint : MP3\nDuration : 43mn 0s\nBit rate mode : Variable\nBit rate : 124 Kbps\nNominal bit rate : 136 Kbps\nChannel(s) : 2 channels\nSampling rate : 48.0 KHz\nCompression mode : Lossy\nStream size : 38.2 MiB (11%)\nAlignment : Aligned on interleaves\n\n\n\nRelease Notes:\n\nConverted 2HD x264 to 2-pass XviD using MeGUI One-Click.\n\n2HD used an HD source, but since this is technically not an HD source as HD is 720p or higher resolution there will not be HDTV in the name.\n\nSome re-encoders like to put HDTV in the file name just because there is an HD logo in the frame. This is incorrect but trying to educate some people on the matter is completely futile.","torrent":{"xt":"urn:btih:cc52133f6599a8820b3f78971cbb0b5e0c399b48","amp;dn":"Face.Off.S03E12.Live.Finale.XviD-OGC","amp;tr":["udp%3A%2F%2Ftracker.openbittorrent.com%3A80","udp%3A%2F%2Fopen.demonii.com%3A1337","udp%3A%2F%2Ftracker.coppersurfer.tk%3A6969","udp%3A%2F%2Fexodus.desync.com%3A6969"],"infoHash":"cc52133f6599a8820b3f78971cbb0b5e0c399b48","infoHashBuffer":{"type":"Buffer","data":[204,82,19,63,101,153,168,130,11,63,120,151,28,187,11,94,12,57,155,72]},"announce":[],"urlList":[]}}